<svg version="1.1" id="Layer_1" xmlns="http://www.w3.org/2000/svg" xmlns:xlink="http://www.w3.org/1999/xlink" x="0px" y="0px"
	 width="100%" viewBox="0 0 1024 1024" enable-background="new 0 0 1024 1024" xml:space="preserve">
<path fill="#000000" opacity="1.000000" stroke="none" 
	d="
M658.106201,298.928101 
	C665.758240,295.815125 673.332336,294.164917 681.170776,293.269836 
	C685.301514,292.798187 686.512207,293.953918 686.465332,297.945496 
	C686.311096,311.108246 686.397705,324.273834 686.396240,337.438354 
	C686.387878,413.759460 686.709534,490.082611 686.236572,566.400818 
	C685.994690,605.423950 672.374756,640.054077 647.626831,670.127930 
	C622.069458,701.185364 589.508179,721.240234 550.123718,729.552429 
	C451.635956,750.338684 360.670288,686.942810 342.653595,594.536987 
	C340.128326,581.585205 338.990631,568.514282 339.043640,555.338684 
	C339.211243,513.686768 340.008636,472.027405 339.465576,430.385223 
	C338.898376,386.893921 339.474487,343.408783 339.070007,299.922882 
	C339.006104,293.052979 339.083405,293.052246 345.575775,293.630646 
	C380.267822,296.721313 411.761292,324.765076 420.258911,360.126038 
	C422.252869,368.423492 423.069183,376.856750 423.063110,385.368042 
	C423.022186,442.692047 423.305878,500.019531 422.737274,557.338501 
	C422.472168,584.060547 430.100922,607.273315 449.054382,626.195557 
	C469.388275,646.495911 494.084930,654.677185 522.758911,652.000000 
	C559.705688,648.550476 592.471558,621.135803 601.080566,581.937622 
	C602.813232,574.048279 602.879517,566.088196 602.877686,558.100037 
	C602.864441,500.109375 602.532837,442.116669 602.923584,384.128784 
	C603.190796,344.477509 621.876221,316.081909 658.106201,298.928101 
z"/>
<path fill="#000000" opacity="1.000000" stroke="none" 
	d="
M527.943359,639.292542 
	C493.032166,646.008118 458.943848,628.713318 443.437622,598.238159 
	C435.506744,582.651306 433.221100,566.039001 436.109955,548.737549 
	C437.538208,540.183655 439.450378,531.782532 442.468628,523.618469 
	C443.978363,519.534790 446.026245,519.003235 449.524811,521.248413 
	C455.127777,524.843994 460.982666,528.054199 465.815338,532.752502 
	C466.966125,533.871338 468.102325,535.228394 469.998627,535.201233 
	C471.844177,534.216370 471.545654,532.437500 471.669769,530.818542 
	C473.083069,512.377747 480.097382,496.024445 490.524811,481.028381 
	C496.328888,472.681305 502.871521,464.910797 510.017273,457.648132 
	C512.057495,455.574554 513.620239,455.094330 515.766296,457.443359 
	C528.175415,471.026001 539.601257,485.274963 546.990234,502.347229 
	C550.854553,511.275726 553.105286,520.619812 554.301086,530.240479 
	C554.486145,531.729492 554.316650,533.456604 555.829712,534.245300 
	C557.753784,535.248291 558.843994,533.486206 560.085876,532.476746 
	C565.526794,528.054321 571.166260,523.957458 577.536255,520.915039 
	C579.898438,519.786743 581.564453,519.662048 582.681152,522.449890 
	C597.711853,559.973389 593.396240,602.777832 555.100281,628.462402 
	C547.021057,633.880920 537.889282,637.157227 527.943359,639.292542 
M538.437317,567.966492 
	C530.908386,553.517334 523.381165,539.067200 515.847839,524.620300 
	C515.081421,523.150513 514.407043,521.406555 512.412598,521.437622 
	C510.686646,521.464478 509.995544,522.961670 509.312683,524.325745 
	C496.957550,549.006348 484.612762,573.692139 472.214081,598.350891 
	C470.500946,601.758057 471.485565,603.578064 475.163757,603.584961 
	C500.119965,603.631897 525.076660,603.642029 550.032410,603.516235 
	C554.730469,603.492493 555.657776,601.789001 553.523560,597.495422 
	C548.713196,587.817871 543.719299,578.231506 538.437317,567.966492 
z"/>
<path fill="#000000" opacity="1.000000" stroke="none" 
	d="
M474.819275,395.198120 
	C479.065308,378.924957 489.160858,368.951569 505.198639,365.851807 
	C521.079407,362.782379 534.532227,367.649841 544.424622,380.714417 
	C553.966370,393.315735 554.283142,411.343750 545.604553,424.810669 
	C537.077332,438.042725 520.845215,444.725830 505.240051,441.429657 
	C488.738220,437.944092 477.247955,426.006348 474.460083,409.965820 
	C473.610565,405.077911 473.857117,400.382141 474.819275,395.198120 
z"/>
</svg>